<svg width="800" height="800.08" version="1.1" viewBox="0 0 800 800.08" xmlns="http://www.w3.org/2000/svg">
 <path d="m345.41 127.33v618.11a54.539 54.539 0 0 1-54.539 54.539h-236.33a54.539 54.539 0 0 1-54.539-54.539v-618.11a54.539 54.539 0 0 1 54.539-54.539h236.33a54.539 54.539 0 0 1 54.539 54.539zm-218.15-9.0898a4.5576 4.5576 0 0 0 4.5449 4.5449h81.808a4.5449 4.5449 0 0 0 0-9.0898h-81.808a4.5576 4.5576 0 0 0-4.5449 4.5449zm-34.087 0a6.8173 6.8173 0 1 0 6.8173-6.8173 6.8192 6.8192 0 0 0-6.8173 6.8173zm111.35 636.28a31.814 31.814 0 1 0-31.814 31.814 31.814 31.814 0 0 0 31.814-31.814zm122.71-590.84h-309.05v545.39h309.05zm-154.53 570.29a20.543 20.543 0 1 0 20.543 20.543 20.567 20.567 0 0 0-20.543-20.543zm627.2-645.89v632.05a150.36 150.36 0 0 1-2.447 33.005 58.824 58.824 0 0 1-15.194 28.767 56.837 56.837 0 0 1-28.149 15.547 140.84 140.84 0 0 1-32.312 2.5124c-76.509 0-169.9 0.0145-246.36 0a123.76 123.76 0 0 1-31.605-2.976 56.298 56.298 0 0 1-27.144-16.033 59.12 59.12 0 0 1-14.435-28.464 154.98 154.98 0 0 1-2.2997-32.36v-632.05-8.1808a143.44 143.44 0 0 1 2.8451-34.692 57.762 57.762 0 0 1 17.251-29.431 55.348 55.348 0 0 1 15.089-9.7115 65.368 65.368 0 0 1 15.544-4.474 122.79 122.79 0 0 1 17.027-1.4271c3.4541-0.087262 7.5064-0.10181 11.348-0.10181h239.3q3.056 0 6.0574 0a123.93 123.93 0 0 1 31.607 2.9778 56.275 56.275 0 0 1 27.142 16.034 59.093 59.093 0 0 1 14.435 28.46 155.02 155.02 0 0 1 2.3015 32.367zm-230.13-78.354a2.3633 2.3633 0 0 0 2.3633 2.3633h55.604a2.3633 2.3633 0 0 0 2.3634-2.3633v-0.36359a2.3633 2.3633 0 0 0-2.3634-2.3633h-55.611a2.3633 2.3633 0 0 0-2.3633 2.3633zm-28.573 22.237a7.699 7.699 0 0 0 7.1573 3.7159 7.4736 7.4736 0 0 0 0-14.884 7.69 7.69 0 0 0-7.1555 3.705 7.8172 7.8172 0 0 0-2e-3 7.4627zm240.53 47.969a139.81 139.81 0 0 0-1.8907-28.542 40.904 40.904 0 0 0-9.957-19.899 38.383 38.383 0 0 0-18.532-10.87 107.41 107.41 0 0 0-27.002-2.3633h-44.727a15.549 15.549 0 0 0-2.996 0.15453 4.5594 4.5594 0 0 0-3.9359 3.8504 15.983 15.983 0 0 0-0.23452 2.9942 44.435 44.435 0 0 1-0.51812 6.7373 19.423 19.423 0 0 1-2.2397 6.2647 20.179 20.179 0 0 1-7.3773 7.4227 20.503 20.503 0 0 1-7.7627 2.5342 62.152 62.152 0 0 1-8.2899 0.2636h-92.665a62.105 62.105 0 0 1-8.2881-0.2636 20.501 20.501 0 0 1-7.7645-2.5342 20.179 20.179 0 0 1-7.3773-7.4409 19.423 19.423 0 0 1-2.2397-6.2647 44.431 44.431 0 0 1-0.5163-6.7373 16.303 16.303 0 0 0-0.23633-2.9942 4.5594 4.5594 0 0 0-3.9359-3.8504 15.556 15.556 0 0 0-2.996-0.15089h-41.184c-3.6868 0-7.5682 0.01273-10.891 0.09635a103.31 103.31 0 0 0-14.504 1.1853 47.363 47.363 0 0 0-11.271 3.2087 37.306 37.306 0 0 0-10.157 6.5301 39.828 39.828 0 0 0-11.806 20.361 127.1 127.1 0 0 0-2.2961 29.994v640.51a139.71 139.71 0 0 0 1.8888 28.511 40.928 40.928 0 0 0 9.9606 19.901 38.359 38.359 0 0 0 18.532 10.866 107.14 107.14 0 0 0 27 2.3633c2.3124 0 6.9664 0.0164 9.2407 0h237.05a126.17 126.17 0 0 0 28.124-2.0216 38.555 38.555 0 0 0 19.339-10.568 40.508 40.508 0 0 0 10.459-20.065 133.96 133.96 0 0 0 2.0016-28.627v-633.78-6.7846z" fill="#1d1d1f"></path>
</svg>
